<svg width="140" height="195" viewBox="0 0 140 195" fill="none" xmlns="http://www.w3.org/2000/svg">
<path d="M76.2074 30.1275L119.076 104.377C122.057 109.541 118.33 115.995 112.368 115.995H26.6318C20.6696 115.995 16.9433 109.541 19.9244 104.378L62.7926 30.1275C65.7737 24.9642 73.2263 24.9642 76.2074 30.1275Z" fill="#FCB827" stroke="black" stroke-width="4.51"/>
<path d="M68.9383 53.4939H68.9732C69.8348 53.4939 70.6615 53.7966 71.4533 54.4021C72.2451 54.9843 72.6409 55.7644 72.6409 56.7425L71.6629 86.4687C71.6629 87.3071 71.4533 88.0639 71.0341 88.7392C70.615 89.3913 69.928 89.7173 68.9732 89.7173C68.0417 89.7173 67.3664 89.3913 66.9472 88.7392C66.528 88.0639 66.3184 87.3071 66.3184 86.4687L65.2705 56.7425C65.2705 55.7644 65.6664 54.9843 66.4582 54.4021C67.2732 53.8199 68.0999 53.5172 68.9383 53.4939ZM69.1479 93.2803C70.3122 93.2803 71.3019 93.6994 72.117 94.5378C72.9553 95.3528 73.3745 96.3425 73.3745 97.5069C73.3745 98.6713 72.9553 99.6726 72.117 100.511C71.3019 101.326 70.3122 101.734 69.1479 101.734C67.9835 101.734 66.9821 101.326 66.1438 100.511C65.3287 99.6726 64.9212 98.6713 64.9212 97.5069C64.9212 96.3425 65.3287 95.3528 66.1438 94.5378C66.9821 93.6994 67.9835 93.2803 69.1479 93.2803Z" fill="black"/>
<rect x="2.25" y="147.25" width="135.5" height="41.5" rx="10.75" fill="white" stroke="black" stroke-width="4.5"/>
<path d="M45.625 164V162.125H43.75V154.625H45.625V162.125H49.375V164H45.625ZM49.375 162.125V154.625H51.25V162.125H49.375ZM55 164V154.625H56.875V156.5H58.75V158.375H60.625V160.25H62.5V154.625H64.375V164H62.5V162.125H60.625V160.25H58.75V158.375H56.875V164H55ZM68.125 164V154.625H73.75V156.5H75.625V162.125H73.75V164H68.125ZM70 162.125H73.675V156.5H70V162.125ZM79.375 164V154.625H85V156.5H81.25V158.375H85V160.25H81.25V162.125H85V164H79.375ZM88.75 164V154.625H94.375V156.5H96.25V158.375H94.375V162.125H96.25V164H94.375V162.125H92.5V160.25H90.625V164H88.75ZM90.625 158.375H94.3V156.5H90.625V158.375ZM12.8125 177.375V175.5H9.0625V173.625H12.8125V175.5H14.6875V177.375H12.8125ZM9.0625 183V181.125H7.1875V175.5H9.0625V181.125H12.8125V183H9.0625ZM12.8125 181.125V179.25H14.6875V181.125H12.8125ZM20.3125 183V181.125H18.4375V175.5H20.3125V173.625H24.0625V175.5H25.9375V181.125H24.0625V183H20.3125ZM20.3125 181.05H24.0625V175.575H20.3125V181.05ZM29.6875 183V173.625H31.5625V175.5H33.4375V177.375H35.3125V179.25H37.1875V173.625H39.0625V183H37.1875V181.125H35.3125V179.25H33.4375V177.375H31.5625V183H29.6875ZM44.6875 175.5V173.625H50.3125V175.5H44.6875ZM48.4375 181.125V179.25H44.6875V177.375H42.8125V175.5H44.6875V177.375H48.4375V179.25H50.3125V181.125H48.4375ZM42.8125 183V181.125H48.4375V183H42.8125ZM55.9375 183V175.5H54.0625V173.625H59.6875V175.5H57.8125V183H55.9375ZM63.4375 183V173.625H69.0625V175.5H70.9375V177.375H69.0625V181.125H70.9375V183H69.0625V181.125H67.1875V179.25H65.3125V183H63.4375ZM65.3125 177.375H68.9875V175.5H65.3125V177.375ZM76.5625 183V181.125H74.6875V173.625H76.5625V181.125H80.3125V183H76.5625ZM80.3125 181.125V173.625H82.1875V181.125H80.3125ZM91.5625 177.375V175.5H87.8125V173.625H91.5625V175.5H93.4375V177.375H91.5625ZM87.8125 183V181.125H85.9375V175.5H87.8125V181.125H91.5625V183H87.8125ZM91.5625 181.125V179.25H93.4375V181.125H91.5625ZM99.0625 183V175.5H97.1875V173.625H102.812V175.5H100.938V183H99.0625ZM106.562 183V173.625H108.438V183H106.562ZM114.062 183V181.125H112.188V175.5H114.062V173.625H117.812V175.5H119.688V181.125H117.812V183H114.062ZM114.062 181.05H117.812V175.575H114.062V181.05ZM123.438 183V173.625H125.312V175.5H127.188V177.375H129.062V179.25H130.938V173.625H132.813V183H130.938V181.125H129.062V179.25H127.188V177.375H125.312V183H123.438Z" fill="black"/>
</svg>
