<svg width="32" height="32" viewBox="0 0 32 32" fill="none" xmlns="http://www.w3.org/2000/svg">
<rect x="19.0588" width="1.49019" height="1.50943" fill="black"/>
<rect x="19.0588" y="1.50946" width="1.49019" height="1.50943" fill="black"/>
<rect x="19.0588" y="3.01886" width="1.49019" height="1.50944" fill="black"/>
<rect x="17.5686" y="4.52832" width="1.4902" height="1.50943" fill="black"/>
<rect x="17.5686" y="6.03778" width="1.4902" height="1.50943" fill="black"/>
<rect x="19.0588" y="9.3584" width="1.49019" height="1.50944" fill="black"/>
<rect x="19.0588" y="15.3963" width="1.49019" height="1.50943" fill="black"/>
<rect x="13.0981" y="15.3963" width="1.4902" height="1.50943" fill="black"/>
<rect x="13.0981" y="10.8679" width="1.4902" height="1.50943" fill="black"/>
<rect x="13.0981" y="9.3584" width="1.4902" height="1.50944" fill="black"/>
<rect x="7.13724" y="15.3963" width="1.4902" height="1.50943" fill="black"/>
<rect x="4.15686" y="15.3963" width="1.4902" height="1.50943" fill="black"/>
<rect x="7.13724" y="10.8679" width="1.4902" height="1.50943" fill="black"/>
<rect x="7.13724" y="9.3584" width="1.4902" height="1.50944" fill="black"/>
<rect x="13.0981" y="21.4339" width="1.4902" height="1.50943" fill="black"/>
<rect x="7.13724" y="21.4339" width="1.4902" height="1.50943" fill="black"/>
<rect x="19.0588" y="21.4339" width="1.49019" height="1.50943" fill="black"/>
<rect x="19.0588" y="10.8679" width="1.49019" height="1.50943" fill="black"/>
<rect x="19.0588" y="16.9058" width="1.49019" height="1.50943" fill="black"/>
<rect x="13.0981" y="16.9058" width="1.4902" height="1.50943" fill="black"/>
<rect x="13.0981" y="12.3773" width="1.4902" height="1.50943" fill="black"/>
<rect x="7.13724" y="16.9058" width="1.4902" height="1.50943" fill="black"/>
<rect x="4.15686" y="16.9058" width="1.4902" height="1.50943" fill="black"/>
<rect x="7.13724" y="12.3773" width="1.4902" height="1.50943" fill="black"/>
<rect x="13.0981" y="22.9434" width="1.4902" height="1.50944" fill="black"/>
<rect x="7.13724" y="22.9434" width="1.4902" height="1.50944" fill="black"/>
<rect x="19.0588" y="22.9434" width="1.49019" height="1.50944" fill="black"/>
<rect x="19.0588" y="12.3773" width="1.49019" height="1.50943" fill="black"/>
<rect x="19.0588" y="18.415" width="1.49019" height="1.50944" fill="black"/>
<rect x="13.0981" y="18.415" width="1.4902" height="1.50944" fill="black"/>
<rect x="13.0981" y="13.8867" width="1.4902" height="1.50943" fill="black"/>
<rect x="7.13724" y="18.415" width="1.4902" height="1.50944" fill="black"/>
<rect x="4.15686" y="18.415" width="1.4902" height="1.50944" fill="black"/>
<rect x="7.13724" y="13.8867" width="1.4902" height="1.50943" fill="black"/>
<rect x="13.0981" y="24.4528" width="1.4902" height="1.50944" fill="black"/>
<rect x="7.13724" y="24.4528" width="1.4902" height="1.50944" fill="black"/>
<rect x="19.0588" y="24.4528" width="1.49019" height="1.50944" fill="black"/>
<rect x="19.0588" y="13.8867" width="1.49019" height="1.50943" fill="black"/>
<rect x="19.0588" y="19.9246" width="1.49019" height="1.50943" fill="black"/>
<rect x="13.0981" y="19.9246" width="1.4902" height="1.50943" fill="black"/>
<rect x="7.13724" y="19.9246" width="1.4902" height="1.50943" fill="black"/>
<rect x="4.15686" y="19.9246" width="1.4902" height="1.50943" fill="black"/>
<rect x="13.0981" y="25.9622" width="1.4902" height="1.50943" fill="black"/>
<rect x="13.0981" y="27.4717" width="1.4902" height="1.50943" fill="black"/>
<rect x="13.0981" y="28.9811" width="1.4902" height="1.50944" fill="black"/>
<rect x="13.0981" y="30.4905" width="1.4902" height="1.50943" fill="black"/>
<rect x="22.0392" y="30.4905" width="1.4902" height="1.50943" fill="black"/>
<rect x="7.13724" y="25.9622" width="1.4902" height="1.50943" fill="black"/>
<rect x="7.13724" y="27.4717" width="1.4902" height="1.50943" fill="black"/>
<rect x="7.13724" y="28.9811" width="1.4902" height="1.50944" fill="black"/>
<rect x="19.0588" y="25.9622" width="1.49019" height="1.50943" fill="black"/>
<rect x="19.0588" y="27.4717" width="1.49019" height="1.50943" fill="black"/>
<rect x="19.0588" y="28.9811" width="1.49019" height="1.50944" fill="black"/>
<rect x="22.0392" y="9.3584" width="1.4902" height="1.50944" fill="black"/>
<rect x="22.0392" y="15.3963" width="1.4902" height="1.50943" fill="black"/>
<rect x="16.0785" y="15.3963" width="1.4902" height="1.50943" fill="black"/>
<rect x="16.0785" y="10.8679" width="1.4902" height="1.50943" fill="black"/>
<rect x="10.1177" y="15.3963" width="1.4902" height="1.50943" fill="black"/>
<rect x="10.1177" y="10.8679" width="1.4902" height="1.50943" fill="black"/>
<rect x="10.1177" y="9.3584" width="1.4902" height="1.50944" fill="black"/>
<rect x="16.0785" y="21.4339" width="1.4902" height="1.50943" fill="black"/>
<rect x="10.1177" y="21.4339" width="1.4902" height="1.50943" fill="black"/>
<rect x="22.0392" y="21.4339" width="1.4902" height="1.50943" fill="black"/>
<rect x="23.5294" y="21.4339" width="1.4902" height="1.50943" fill="black"/>
<rect x="22.0392" y="10.8679" width="1.4902" height="1.50943" fill="black"/>
<rect x="22.0392" y="16.9058" width="1.4902" height="1.50943" fill="black"/>
<rect x="16.0785" y="16.9058" width="1.4902" height="1.50943" fill="black"/>
<rect x="16.0785" y="12.3773" width="1.4902" height="1.50943" fill="black"/>
<rect x="10.1177" y="16.9058" width="1.4902" height="1.50943" fill="black"/>
<rect x="10.1177" y="12.3773" width="1.4902" height="1.50943" fill="black"/>
<rect x="16.0785" y="22.9434" width="1.4902" height="1.50944" fill="black"/>
<rect x="10.1177" y="22.9434" width="1.4902" height="1.50944" fill="black"/>
<rect x="22.0392" y="22.9434" width="1.4902" height="1.50944" fill="black"/>
<rect x="25.0196" y="22.9434" width="1.4902" height="1.50944" fill="black"/>
<rect x="25.0196" y="25.9622" width="1.4902" height="1.50943" fill="black"/>
<rect x="23.5294" y="22.9434" width="1.4902" height="1.50944" fill="black"/>
<rect x="26.5098" y="22.9434" width="1.4902" height="1.50944" fill="black"/>
<rect x="22.0392" y="12.3773" width="1.4902" height="1.50943" fill="black"/>
<rect x="22.0392" y="18.415" width="1.4902" height="1.50944" fill="black"/>
<rect x="16.0785" y="18.415" width="1.4902" height="1.50944" fill="black"/>
<rect x="16.0785" y="13.8867" width="1.4902" height="1.50943" fill="black"/>
<rect x="10.1177" y="18.415" width="1.4902" height="1.50944" fill="black"/>
<rect x="10.1177" y="13.8867" width="1.4902" height="1.50943" fill="black"/>
<rect x="16.0785" y="24.4528" width="1.4902" height="1.50944" fill="black"/>
<rect x="10.1177" y="24.4528" width="1.4902" height="1.50944" fill="black"/>
<rect x="22.0392" y="24.4528" width="1.4902" height="1.50944" fill="black"/>
<rect x="22.0392" y="27.4717" width="1.4902" height="1.50943" fill="black"/>
<rect x="25.0196" y="24.4528" width="1.4902" height="1.50944" fill="black"/>
<rect x="25.0196" y="27.4717" width="1.4902" height="1.50943" fill="black"/>
<rect x="23.5294" y="24.4528" width="1.4902" height="1.50944" fill="black"/>
<rect x="23.5294" y="27.4717" width="1.4902" height="1.50943" fill="black"/>
<rect x="26.5098" y="24.4528" width="1.4902" height="1.50944" fill="black"/>
<rect x="22.0392" y="13.8867" width="1.4902" height="1.50943" fill="black"/>
<rect x="22.0392" y="19.9246" width="1.4902" height="1.50943" fill="black"/>
<rect x="16.0785" y="19.9246" width="1.4902" height="1.50943" fill="black"/>
<rect x="10.1177" y="19.9246" width="1.4902" height="1.50943" fill="black"/>
<rect x="16.0785" y="25.9622" width="1.4902" height="1.50943" fill="black"/>
<rect x="16.0785" y="27.4717" width="1.4902" height="1.50943" fill="black"/>
<rect x="16.0785" y="28.9811" width="1.4902" height="1.50944" fill="black"/>
<rect x="10.1177" y="25.9622" width="1.4902" height="1.50943" fill="black"/>
<rect x="10.1177" y="27.4717" width="1.4902" height="1.50943" fill="black"/>
<rect x="10.1177" y="28.9811" width="1.4902" height="1.50944" fill="black"/>
<rect x="10.1177" y="30.4905" width="1.4902" height="1.50943" fill="black"/>
<rect x="19.0588" y="30.4905" width="1.49019" height="1.50943" fill="black"/>
<rect x="22.0392" y="25.9622" width="1.4902" height="1.50943" fill="black"/>
<rect x="22.0392" y="28.9811" width="1.4902" height="1.50944" fill="black"/>
<rect x="23.5294" y="25.9622" width="1.4902" height="1.50943" fill="black"/>
<rect x="23.5294" y="28.9811" width="1.4902" height="1.50944" fill="black"/>
<rect x="23.5294" y="9.3584" width="1.4902" height="1.50944" fill="black"/>
<rect x="23.5294" y="10.8679" width="1.4902" height="1.50943" fill="black"/>
<rect x="25.0196" y="10.8679" width="1.4902" height="1.50943" fill="black"/>
<rect x="23.5294" y="12.3773" width="1.4902" height="1.50943" fill="black"/>
<rect x="25.0196" y="12.3773" width="1.4902" height="1.50943" fill="black"/>
<rect x="26.5098" y="12.3773" width="1.4902" height="1.50943" fill="black"/>
<rect x="23.5294" y="13.8867" width="1.4902" height="1.50943" fill="black"/>
<rect x="17.5686" y="1.50946" width="1.4902" height="1.50943" fill="black"/>
<rect x="17.5686" y="3.01886" width="1.4902" height="1.50944" fill="black"/>
<rect x="16.0785" y="4.52832" width="1.4902" height="1.50943" fill="black"/>
<rect x="16.0785" y="6.03778" width="1.4902" height="1.50943" fill="black"/>
<rect x="17.5686" y="9.3584" width="1.4902" height="1.50944" fill="black"/>
<rect x="17.5686" y="15.3963" width="1.4902" height="1.50943" fill="black"/>
<rect x="11.6078" y="15.3963" width="1.4902" height="1.50943" fill="black"/>
<rect x="11.6078" y="10.8679" width="1.4902" height="1.50943" fill="black"/>
<rect x="11.6078" y="9.3584" width="1.4902" height="1.50944" fill="black"/>
<rect x="5.64706" y="15.3963" width="1.4902" height="1.50943" fill="black"/>
<rect x="2.66666" y="15.3963" width="1.4902" height="1.50943" fill="black"/>
<rect x="5.64706" y="10.8679" width="1.4902" height="1.50943" fill="black"/>
<rect x="11.6078" y="21.4339" width="1.4902" height="1.50943" fill="black"/>
<rect x="5.64706" y="21.4339" width="1.4902" height="1.50943" fill="black"/>
<rect x="4.15686" y="21.4339" width="1.4902" height="1.50943" fill="black"/>
<rect x="17.5686" y="21.4339" width="1.4902" height="1.50943" fill="black"/>
<rect x="17.5686" y="10.8679" width="1.4902" height="1.50943" fill="black"/>
<rect x="17.5686" y="16.9058" width="1.4902" height="1.50943" fill="black"/>
<rect x="11.6078" y="16.9058" width="1.4902" height="1.50943" fill="black"/>
<rect x="11.6078" y="12.3773" width="1.4902" height="1.50943" fill="black"/>
<rect x="5.64706" y="16.9058" width="1.4902" height="1.50943" fill="black"/>
<rect x="2.66666" y="16.9058" width="1.4902" height="1.50943" fill="black"/>
<rect x="5.64706" y="12.3773" width="1.4902" height="1.50943" fill="black"/>
<rect x="4.15686" y="12.3773" width="1.4902" height="1.50943" fill="black"/>
<rect x="11.6078" y="22.9434" width="1.4902" height="1.50944" fill="black"/>
<rect x="5.64706" y="22.9434" width="1.4902" height="1.50944" fill="black"/>
<rect x="4.15686" y="22.9434" width="1.4902" height="1.50944" fill="black"/>
<rect x="17.5686" y="22.9434" width="1.4902" height="1.50944" fill="black"/>
<rect x="17.5686" y="12.3773" width="1.4902" height="1.50943" fill="black"/>
<rect x="17.5686" y="18.415" width="1.4902" height="1.50944" fill="black"/>
<rect x="11.6078" y="18.415" width="1.4902" height="1.50944" fill="black"/>
<rect x="11.6078" y="13.8867" width="1.4902" height="1.50943" fill="black"/>
<rect x="5.64706" y="18.415" width="1.4902" height="1.50944" fill="black"/>
<rect x="2.66666" y="18.415" width="1.4902" height="1.50944" fill="black"/>
<rect x="5.64706" y="13.8867" width="1.4902" height="1.50943" fill="black"/>
<rect x="4.15686" y="13.8867" width="1.4902" height="1.50943" fill="black"/>
<rect x="11.6078" y="24.4528" width="1.4902" height="1.50944" fill="black"/>
<rect x="5.64706" y="24.4528" width="1.4902" height="1.50944" fill="black"/>
<rect x="4.15686" y="24.4528" width="1.4902" height="1.50944" fill="black"/>
<rect x="17.5686" y="24.4528" width="1.4902" height="1.50944" fill="black"/>
<rect x="17.5686" y="13.8867" width="1.4902" height="1.50943" fill="black"/>
<rect x="17.5686" y="19.9246" width="1.4902" height="1.50943" fill="black"/>
<rect x="11.6078" y="19.9246" width="1.4902" height="1.50943" fill="black"/>
<rect x="5.64706" y="19.9246" width="1.4902" height="1.50943" fill="black"/>
<rect x="2.66666" y="19.9246" width="1.4902" height="1.50943" fill="black"/>
<rect x="11.6078" y="25.9622" width="1.4902" height="1.50943" fill="black"/>
<rect x="11.6078" y="27.4717" width="1.4902" height="1.50943" fill="black"/>
<rect x="11.6078" y="28.9811" width="1.4902" height="1.50944" fill="black"/>
<rect x="11.6078" y="30.4905" width="1.4902" height="1.50943" fill="black"/>
<rect x="20.549" y="30.4905" width="1.4902" height="1.50943" fill="black"/>
<rect x="5.64706" y="25.9622" width="1.4902" height="1.50943" fill="black"/>
<rect x="5.64706" y="27.4717" width="1.4902" height="1.50943" fill="black"/>
<rect x="17.5686" y="25.9622" width="1.4902" height="1.50943" fill="black"/>
<rect x="17.5686" y="27.4717" width="1.4902" height="1.50943" fill="black"/>
<rect x="17.5686" y="28.9811" width="1.4902" height="1.50944" fill="black"/>
<rect x="20.549" y="9.3584" width="1.4902" height="1.50944" fill="black"/>
<rect x="20.549" y="15.3963" width="1.4902" height="1.50943" fill="black"/>
<rect x="14.5882" y="15.3963" width="1.49019" height="1.50943" fill="black"/>
<rect x="14.5882" y="10.8679" width="1.49019" height="1.50943" fill="black"/>
<rect x="8.62744" y="15.3963" width="1.49019" height="1.50943" fill="black"/>
<rect x="8.62744" y="10.8679" width="1.49019" height="1.50943" fill="black"/>
<rect x="8.62744" y="9.3584" width="1.49019" height="1.50944" fill="black"/>
<rect x="14.5882" y="21.4339" width="1.49019" height="1.50943" fill="black"/>
<rect x="8.62744" y="21.4339" width="1.49019" height="1.50943" fill="black"/>
<rect x="20.549" y="21.4339" width="1.4902" height="1.50943" fill="black"/>
<rect x="20.549" y="10.8679" width="1.4902" height="1.50943" fill="black"/>
<rect x="20.549" y="16.9058" width="1.4902" height="1.50943" fill="black"/>
<rect x="14.5882" y="16.9058" width="1.49019" height="1.50943" fill="black"/>
<rect x="14.5882" y="12.3773" width="1.49019" height="1.50943" fill="black"/>
<rect x="8.62744" y="16.9058" width="1.49019" height="1.50943" fill="black"/>
<rect x="8.62744" y="12.3773" width="1.49019" height="1.50943" fill="black"/>
<rect x="14.5882" y="22.9434" width="1.49019" height="1.50944" fill="black"/>
<rect x="8.62744" y="22.9434" width="1.49019" height="1.50944" fill="black"/>
<rect x="20.549" y="22.9434" width="1.4902" height="1.50944" fill="black"/>
<rect x="20.549" y="12.3773" width="1.4902" height="1.50943" fill="black"/>
<rect x="20.549" y="18.415" width="1.4902" height="1.50944" fill="black"/>
<rect x="14.5882" y="18.415" width="1.49019" height="1.50944" fill="black"/>
<rect x="14.5882" y="13.8867" width="1.49019" height="1.50943" fill="black"/>
<rect x="8.62744" y="18.415" width="1.49019" height="1.50944" fill="black"/>
<rect x="8.62744" y="13.8867" width="1.49019" height="1.50943" fill="black"/>
<rect x="14.5882" y="24.4528" width="1.49019" height="1.50944" fill="black"/>
<rect x="8.62744" y="24.4528" width="1.49019" height="1.50944" fill="black"/>
<rect x="20.549" y="24.4528" width="1.4902" height="1.50944" fill="black"/>
<rect x="20.549" y="13.8867" width="1.4902" height="1.50943" fill="black"/>
<rect x="20.549" y="19.9246" width="1.4902" height="1.50943" fill="black"/>
<rect x="14.5882" y="19.9246" width="1.49019" height="1.50943" fill="black"/>
<rect x="8.62744" y="19.9246" width="1.49019" height="1.50943" fill="black"/>
<rect x="14.5882" y="25.9622" width="1.49019" height="1.50943" fill="black"/>
<rect x="14.5882" y="27.4717" width="1.49019" height="1.50943" fill="black"/>
<rect x="14.5882" y="28.9811" width="1.49019" height="1.50944" fill="black"/>
<rect x="8.62744" y="25.9622" width="1.49019" height="1.50943" fill="black"/>
<rect x="8.62744" y="27.4717" width="1.49019" height="1.50943" fill="black"/>
<rect x="8.62744" y="28.9811" width="1.49019" height="1.50944" fill="black"/>
<rect x="8.62744" y="30.4905" width="1.49019" height="1.50943" fill="black"/>
<rect x="17.5686" y="30.4905" width="1.4902" height="1.50943" fill="black"/>
<rect x="20.549" y="25.9622" width="1.4902" height="1.50943" fill="black"/>
<rect x="20.549" y="27.4717" width="1.4902" height="1.50943" fill="black"/>
<rect x="20.549" y="28.9811" width="1.4902" height="1.50944" fill="black"/>
<rect x="16.0785" y="3.01886" width="1.4902" height="1.50944" fill="black"/>
<rect x="20.549" width="1.4902" height="1.50943" fill="black"/>
<rect x="20.549" y="1.50946" width="1.4902" height="1.50943" fill="black"/>
<rect x="20.549" y="3.01886" width="1.4902" height="1.50944" fill="black"/>
<rect x="19.0588" y="4.52832" width="1.49019" height="1.50943" fill="black"/>
</svg>
