<svg width="140" height="195" viewBox="0 0 140 195" fill="none" xmlns="http://www.w3.org/2000/svg">
<path d="M27.042 20.156C21.0853 20.156 16.2563 24.985 16.2563 30.9417V116.238C16.2563 122.195 21.0853 127.024 27.0421 127.024H112.338C118.295 127.024 123.124 122.195 123.124 116.238V51.8124C123.124 48.7455 121.818 45.8236 119.534 43.7776L96.2281 22.9069C94.25 21.1355 91.688 20.156 89.0327 20.156H27.042Z" fill="#963D97" stroke="black" stroke-width="4.51219"/>
<rect x="28.7477" y="18.3749" width="58.0015" height="29.0007" rx="8.52963" fill="#939393" stroke="black" stroke-width="4.51219"/>
<rect x="67.9839" y="25.1985" width="11.9415" height="15.3533" rx="4.26481" fill="#939393" stroke="black" stroke-width="2.98537"/>
<mask id="path-4-inside-1_2_985" fill="white">
<path d="M32.1598 83.5008C32.1598 81.1454 34.0692 79.236 36.4246 79.236H102.103C104.458 79.236 106.368 81.1454 106.368 83.5008V127.855H32.1598V83.5008Z"/>
</mask>
<path d="M32.1598 83.5008C32.1598 81.1454 34.0692 79.236 36.4246 79.236H102.103C104.458 79.236 106.368 81.1454 106.368 83.5008V127.855H32.1598V83.5008Z" fill="white"/>
<path d="M32.1598 79.236H106.368H32.1598ZM106.368 130.84H32.1598V124.869H106.368V130.84ZM32.1598 127.855V79.236V127.855ZM106.368 79.236V127.855V79.236Z" fill="black" mask="url(#path-4-inside-1_2_985)"/>
<line x1="45.594" y1="93.4212" x2="92.9334" y2="93.4212" stroke="#82797A" stroke-width="2.98537" stroke-linecap="round"/>
<line x1="45.594" y1="102.804" x2="92.9334" y2="102.804" stroke="#82797A" stroke-width="2.98537" stroke-linecap="round"/>
<line x1="45.594" y1="112.186" x2="92.9334" y2="112.186" stroke="#82797A" stroke-width="2.98537" stroke-linecap="round"/>
<path d="M39.3741 80.0841C38.7562 79.4662 38.7562 78.4646 39.3741 77.8468L44.7549 72.4659L39.3741 67.0851C38.7563 66.4673 38.7563 65.4656 39.3741 64.8477C39.3741 64.8477 39.3741 64.8477 39.3741 64.8477M39.3741 80.0841L39.3741 64.8477M39.3741 80.0841C39.9919 80.7019 40.9936 80.7019 41.6114 80.0841L46.9923 74.7032L52.3731 80.0841C52.991 80.7019 53.9927 80.7019 54.6106 80.0841C55.2284 79.4662 55.2284 78.4646 54.6106 77.8468L49.2297 72.4659L54.6104 67.0851C55.2283 66.4673 55.2283 65.4656 54.6104 64.8477C53.9926 64.2299 52.991 64.2299 52.3731 64.8477L46.9923 70.2285L41.6115 64.8477L41.2728 65.1865L41.6115 64.8477C40.9937 64.2299 39.992 64.2299 39.3741 64.8477M39.3741 80.0841L39.3741 64.8477" fill="black" stroke="black" stroke-width="0.958107"/>
<path d="M84.884 80.0841C84.2662 79.4662 84.2662 78.4646 84.884 77.8468L90.2649 72.4659L84.8841 67.0851C84.2663 66.4673 84.2662 65.4656 84.8841 64.8477C84.8841 64.8477 84.8841 64.8477 84.8841 64.8477M84.884 80.0841L84.8841 64.8477M84.884 80.0841C85.5018 80.7019 86.5035 80.7019 87.1214 80.0841L92.5022 74.7032L97.8831 80.0841C98.5009 80.7019 99.5027 80.7019 100.121 80.0841C100.738 79.4662 100.738 78.4646 100.121 77.8468L94.7397 72.4659L100.12 67.0851C100.738 66.4673 100.738 65.4656 100.12 64.8477C99.5025 64.2299 98.5009 64.2299 97.8831 64.8477L92.5022 70.2285L87.1215 64.8477L86.7827 65.1865L87.1215 64.8477C86.5036 64.2299 85.5019 64.2299 84.8841 64.8477M84.884 80.0841L84.8841 64.8477" fill="black" stroke="black" stroke-width="0.958107"/>
<rect x="69.7991" y="70.8934" width="3.04095" height="9.12284" rx="1.52047" fill="black"/>
<rect x="66.7581" y="76.9752" width="6.08189" height="3.04095" rx="1.52047" fill="black"/>
<mask id="path-13-outside-2_2_985" maskUnits="userSpaceOnUse" x="58.505" y="84.631" width="24.261" height="17.8728" fill="black">
<rect fill="white" x="58.505" y="84.631" width="24.261" height="17.8728"/>
<path d="M60.3975 87.3365C60.4318 86.9287 60.6008 86.5874 60.9044 86.3125C61.2171 86.0484 61.5723 85.933 61.9701 85.9665L61.985 85.9678L80.6794 87.5113C80.9479 87.5339 81.2407 87.6837 81.5579 87.9608C81.8843 88.2487 82.0323 88.6317 82.0021 89.1099L81.6364 93.8115C81.5141 95.2635 81.1645 96.5611 80.5876 97.7044C80.0197 98.8585 79.2291 99.7434 78.2158 100.359C77.2016 100.985 75.9586 101.236 74.4867 101.112C72.806 100.971 71.4844 100.489 70.522 99.6665C69.5596 98.8444 68.8937 97.7718 68.5243 96.4487C68.1541 95.1355 68.0128 93.6613 68.1004 92.0261L68.2542 89.4851L61.704 88.9488L61.6891 88.9475C61.2913 88.9141 60.9657 88.7364 60.7124 88.4146C60.4682 88.1036 60.3632 87.7442 60.3975 87.3365ZM74.7229 98.1272C75.9661 98.2318 76.8984 97.8646 77.5198 97.0256C78.1405 96.1964 78.5161 95.0061 78.6467 93.4547L78.9066 90.3667L71.2675 89.7388L71.1175 92.235C71.0099 93.9887 71.1936 95.3763 71.6685 96.3978C72.1434 97.4193 73.1615 97.9958 74.7229 98.1272Z"/>
</mask>
<path d="M60.3975 87.3365C60.4318 86.9287 60.6008 86.5874 60.9044 86.3125C61.2171 86.0484 61.5723 85.933 61.9701 85.9665L61.985 85.9678L80.6794 87.5113C80.9479 87.5339 81.2407 87.6837 81.5579 87.9608C81.8843 88.2487 82.0323 88.6317 82.0021 89.1099L81.6364 93.8115C81.5141 95.2635 81.1645 96.5611 80.5876 97.7044C80.0197 98.8585 79.2291 99.7434 78.2158 100.359C77.2016 100.985 75.9586 101.236 74.4867 101.112C72.806 100.971 71.4844 100.489 70.522 99.6665C69.5596 98.8444 68.8937 97.7718 68.5243 96.4487C68.1541 95.1355 68.0128 93.6613 68.1004 92.0261L68.2542 89.4851L61.704 88.9488L61.6891 88.9475C61.2913 88.9141 60.9657 88.7364 60.7124 88.4146C60.4682 88.1036 60.3632 87.7442 60.3975 87.3365ZM74.7229 98.1272C75.9661 98.2318 76.8984 97.8646 77.5198 97.0256C78.1405 96.1964 78.5161 95.0061 78.6467 93.4547L78.9066 90.3667L71.2675 89.7388L71.1175 92.235C71.0099 93.9887 71.1936 95.3763 71.6685 96.3978C72.1434 97.4193 73.1615 97.9958 74.7229 98.1272Z" fill="black"/>
<path d="M60.9044 86.3125L60.5952 85.9465L60.5889 85.9519L60.5828 85.9574L60.9044 86.3125ZM61.985 85.9678L61.9448 86.4451L61.9456 86.4452L61.985 85.9678ZM80.6794 87.5113L80.7195 87.0339L80.7188 87.0339L80.6794 87.5113ZM81.5579 87.9608L81.8749 87.6016L81.8731 87.6L81.5579 87.9608ZM82.0021 89.1099L82.4797 89.1471L82.4802 89.1402L82.0021 89.1099ZM81.6364 93.8115L82.1137 93.8517L82.114 93.8487L81.6364 93.8115ZM80.5876 97.7044L80.1599 97.4886L80.1577 97.4929L80.5876 97.7044ZM78.2158 100.359L77.967 99.9498L77.9642 99.9515L78.2158 100.359ZM68.5243 96.4487L68.9858 96.3198L68.9854 96.3187L68.5243 96.4487ZM68.1004 92.0261L67.6222 91.9972L67.622 92.0005L68.1004 92.0261ZM68.2542 89.4851L68.7323 89.5141L68.7607 89.0459L68.2933 89.0077L68.2542 89.4851ZM61.704 88.9488L61.6639 89.4262L61.665 89.4263L61.704 88.9488ZM60.7124 88.4146L60.3356 88.7105L60.336 88.711L60.7124 88.4146ZM77.5198 97.0256L77.1363 96.7385L77.1349 96.7404L77.5198 97.0256ZM78.9066 90.3667L79.384 90.4069L79.4243 89.9286L78.9459 89.8893L78.9066 90.3667ZM71.2675 89.7388L71.3068 89.2613L70.8187 89.2212L70.7893 89.71L71.2675 89.7388ZM71.1175 92.235L71.5957 92.2644L71.5957 92.2638L71.1175 92.235ZM60.8749 87.3767C60.899 87.09 61.0122 86.8611 61.2259 86.6676L60.5828 85.9574C60.1894 86.3137 59.9647 86.7675 59.9202 87.2963L60.8749 87.3767ZM61.2135 86.6785C61.4319 86.494 61.6623 86.4214 61.9299 86.4439L62.0103 85.4892C61.4823 85.4447 61.0022 85.6027 60.5952 85.9465L61.2135 86.6785ZM61.9299 86.4439L61.9448 86.4451L62.0252 85.4904L62.0103 85.4892L61.9299 86.4439ZM61.9456 86.4452L80.6399 87.9887L80.7188 87.0339L62.0244 85.4903L61.9456 86.4452ZM80.6392 87.9887C80.7631 87.9991 80.9621 88.0764 81.2428 88.3216L81.8731 87.6C81.5194 87.2911 81.1327 87.0687 80.7195 87.0339L80.6392 87.9887ZM81.241 88.3201C81.444 88.4992 81.5459 88.7321 81.524 89.0797L82.4802 89.1402C82.5187 88.5314 82.3245 87.9982 81.8749 87.6016L81.241 88.3201ZM81.5245 89.0728L81.1588 93.7744L82.114 93.8487L82.4797 89.1471L81.5245 89.0728ZM81.159 93.7713C81.0412 95.1705 80.7057 96.4072 80.1599 97.4886L81.0152 97.9203C81.6234 96.7151 81.9871 95.3565 82.1137 93.8517L81.159 93.7713ZM80.1577 97.4929C79.6266 98.5724 78.8957 99.3854 77.967 99.9498L78.4645 100.769C79.5624 100.101 80.4128 99.1446 81.0174 97.9159L80.1577 97.4929ZM77.9642 99.9515C77.0564 100.512 75.9214 100.752 74.5269 100.635L74.4465 101.589C75.9957 101.72 77.3468 101.458 78.4673 100.767L77.9642 99.9515ZM74.5269 100.635C72.9133 100.499 71.6976 100.041 70.8332 99.3023L70.2109 100.031C71.2712 100.937 72.6987 101.442 74.4465 101.589L74.5269 100.635ZM70.8332 99.3023C69.9493 98.5472 69.3318 97.5595 68.9858 96.3198L68.0629 96.5775C68.4556 97.984 69.1699 99.1415 70.2109 100.031L70.8332 99.3023ZM68.9854 96.3187C68.632 95.065 68.4934 93.6447 68.5787 92.0518L67.622 92.0005C67.5322 93.678 67.6763 95.206 68.0633 96.5786L68.9854 96.3187ZM68.5785 92.0551L68.7323 89.5141L67.776 89.4562L67.6222 91.9972L68.5785 92.0551ZM68.2933 89.0077L61.7431 88.4713L61.665 89.4263L68.2151 89.9626L68.2933 89.0077ZM61.7442 88.4714L61.7293 88.4702L61.649 89.4249L61.6639 89.4262L61.7442 88.4714ZM61.7293 88.4702C61.4677 88.4482 61.2624 88.3388 61.0888 88.1183L60.336 88.711C60.6691 89.134 61.115 89.38 61.649 89.4249L61.7293 88.4702ZM61.0892 88.1187C60.9226 87.9066 60.8503 87.6683 60.8749 87.3767L59.9202 87.2963C59.8761 87.8201 60.0138 88.3006 60.3356 88.7105L61.0892 88.1187ZM74.6827 98.6046C76.0537 98.72 77.1639 98.3109 77.9048 97.3107L77.1349 96.7404C76.6328 97.4183 75.8784 97.7437 74.7631 97.6498L74.6827 98.6046ZM77.9034 97.3126C78.5984 96.3841 78.9895 95.0938 79.1241 93.4949L78.1693 93.4145C78.0427 94.9184 77.6826 96.0088 77.1363 96.7385L77.9034 97.3126ZM79.1241 93.4949L79.384 90.4069L78.4293 90.3266L78.1693 93.4145L79.1241 93.4949ZM78.9459 89.8893L71.3068 89.2613L71.2283 90.2162L78.8674 90.8442L78.9459 89.8893ZM70.7893 89.71L70.6393 92.2063L71.5957 92.2638L71.7457 89.7675L70.7893 89.71ZM70.6393 92.2057C70.5294 93.9986 70.7119 95.4766 71.2341 96.5998L72.1029 96.1959C71.6753 95.2761 71.4905 93.9789 71.5957 92.2644L70.6393 92.2057ZM71.2341 96.5998C71.8085 97.8353 73.0252 98.4651 74.6827 98.6046L74.7631 97.6498C73.2978 97.5265 72.4783 97.0034 72.1029 96.1959L71.2341 96.5998Z" fill="black" mask="url(#path-13-outside-2_2_985)"/>
<rect x="2.25" y="157.25" width="135.5" height="31.5" rx="10.75" fill="white" stroke="black" stroke-width="4.5"/>
<path d="M37 173V171H33V169H37V171H39V173H37ZM33 179V177H31V171H33V177H37V179H33ZM37 177V175H39V177H37ZM45 179V177H43V171H45V169H49V171H51V177H49V179H45ZM45 176.92H49V171.08H45V176.92ZM55 179V169H57V171H59V173H61V175H63V169H65V179H63V177H61V175H59V173H57V179H55ZM71 179V171H69V169H75V171H73V179H71ZM79 179V171H81V169H85V171H87V179H85V175H81V179H79ZM81 173H85V171.08H81V173ZM97 173V171H93V169H97V171H99V173H97ZM93 179V177H91V171H93V177H97V179H93ZM97 177V175H99V177H97ZM105 179V171H103V169H109V171H107V179H105Z" fill="black"/>
</svg>
