<svg width="118" height="119" viewBox="0 0 118 119" fill="none" xmlns="http://www.w3.org/2000/svg">
<g filter="url(#filter0_d_1_372)">
<path d="M19.042 4.15601C13.0853 4.15601 8.25632 8.98495 8.25632 14.9417V100.238C8.25632 106.195 13.0853 111.024 19.0421 111.024H104.338C110.295 111.024 115.124 106.195 115.124 100.238V35.8124C115.124 32.7455 113.818 29.8236 111.534 27.7776L88.2281 6.90691C86.25 5.1355 83.688 4.15601 81.0327 4.15601H19.042Z" fill="#963D97" stroke="black" stroke-width="4.51219"/>
<rect x="20.7477" y="2.37488" width="58.0015" height="29.0007" rx="8.52963" fill="#939393" stroke="black" stroke-width="4.51219"/>
<rect x="59.9839" y="9.19855" width="11.9415" height="15.3533" rx="4.26481" fill="#939393" stroke="black" stroke-width="2.98537"/>
<mask id="path-4-inside-1_1_372" fill="white">
<path d="M24.1597 67.5008C24.1597 65.1454 26.0692 63.236 28.4246 63.236H94.1027C96.4581 63.236 98.3675 65.1454 98.3675 67.5008V111.855H24.1597V67.5008Z"/>
</mask>
<path d="M24.1597 67.5008C24.1597 65.1454 26.0692 63.236 28.4246 63.236H94.1027C96.4581 63.236 98.3675 65.1454 98.3675 67.5008V111.855H24.1597V67.5008Z" fill="white"/>
<path d="M24.1597 63.236H98.3675H24.1597ZM98.3675 114.84H24.1597V108.869H98.3675V114.84ZM24.1597 111.855V63.236V111.855ZM98.3675 63.236V111.855V63.236Z" fill="black" mask="url(#path-4-inside-1_1_372)"/>
<line x1="37.594" y1="77.4212" x2="84.9334" y2="77.4212" stroke="#82797A" stroke-width="2.98537" stroke-linecap="round"/>
<line x1="37.594" y1="86.8038" x2="84.9334" y2="86.8038" stroke="#82797A" stroke-width="2.98537" stroke-linecap="round"/>
<line x1="37.594" y1="96.1864" x2="84.9334" y2="96.1864" stroke="#82797A" stroke-width="2.98537" stroke-linecap="round"/>
<path d="M31.3741 64.0841C30.7562 63.4662 30.7562 62.4646 31.3741 61.8468L36.7549 56.4659L31.3741 51.0851C30.7563 50.4673 30.7563 49.4656 31.3741 48.8477C31.3741 48.8477 31.3741 48.8477 31.3741 48.8477M31.3741 64.0841L31.3741 48.8477M31.3741 64.0841C31.9919 64.7019 32.9936 64.7019 33.6114 64.0841L38.9923 58.7032L44.3731 64.0841C44.991 64.7019 45.9927 64.7019 46.6106 64.0841C47.2284 63.4662 47.2284 62.4646 46.6106 61.8468L41.2297 56.4659L46.6104 51.0851C47.2283 50.4673 47.2283 49.4656 46.6104 48.8477C45.9926 48.2299 44.991 48.2299 44.3731 48.8477L38.9923 54.2285L33.6115 48.8477L33.2728 49.1865L33.6115 48.8477C32.9937 48.2299 31.992 48.2299 31.3741 48.8477M31.3741 64.0841L31.3741 48.8477" fill="black" stroke="black" stroke-width="0.958107"/>
<path d="M76.884 64.0841C76.2662 63.4662 76.2662 62.4646 76.884 61.8468L82.2649 56.4659L76.8841 51.0851C76.2663 50.4673 76.2662 49.4656 76.8841 48.8477C76.8841 48.8477 76.8841 48.8477 76.8841 48.8477M76.884 64.0841L76.8841 48.8477M76.884 64.0841C77.5018 64.7019 78.5035 64.7019 79.1214 64.0841L84.5022 58.7032L89.8831 64.0841C90.5009 64.7019 91.5027 64.7019 92.1205 64.0841C92.7384 63.4662 92.7384 62.4646 92.1205 61.8468L86.7397 56.4659L92.1204 51.0851C92.7382 50.4673 92.7382 49.4656 92.1204 48.8477C91.5025 48.2299 90.5009 48.2299 89.8831 48.8477L84.5022 54.2285L79.1215 48.8477L78.7827 49.1865L79.1215 48.8477C78.5036 48.2299 77.5019 48.2299 76.8841 48.8477M76.884 64.0841L76.8841 48.8477" fill="black" stroke="black" stroke-width="0.958107"/>
<rect x="61.7991" y="54.8934" width="3.04095" height="9.12284" rx="1.52047" fill="black"/>
<rect x="58.7581" y="60.9752" width="6.08189" height="3.04095" rx="1.52047" fill="black"/>
<mask id="path-13-outside-2_1_372" maskUnits="userSpaceOnUse" x="50.505" y="68.631" width="24.261" height="17.8728" fill="black">
<rect fill="white" x="50.505" y="68.631" width="24.261" height="17.8728"/>
<path d="M52.3975 71.3365C52.4318 70.9287 52.6008 70.5874 52.9044 70.3125C53.2171 70.0484 53.5723 69.933 53.9701 69.9665L53.985 69.9678L72.6794 71.5113C72.9479 71.5339 73.2407 71.6837 73.5579 71.9608C73.8843 72.2487 74.0323 72.6317 74.0021 73.1099L73.6364 77.8115C73.5141 79.2635 73.1645 80.5611 72.5876 81.7044C72.0197 82.8585 71.2291 83.7434 70.2158 84.3592C69.2016 84.985 67.9586 85.2359 66.4867 85.112C64.806 84.9705 63.4844 84.4887 62.522 83.6665C61.5596 82.8444 60.8937 81.7718 60.5243 80.4487C60.1541 79.1355 60.0128 77.6613 60.1004 76.0261L60.2542 73.4851L53.704 72.9488L53.6891 72.9475C53.2913 72.9141 52.9657 72.7364 52.7124 72.4146C52.4682 72.1036 52.3632 71.7442 52.3975 71.3365ZM66.7229 82.1272C67.9661 82.2318 68.8984 81.8646 69.5198 81.0256C70.1405 80.1964 70.5161 79.0061 70.6467 77.4547L70.9066 74.3667L63.2675 73.7388L63.1175 76.235C63.0099 77.9887 63.1936 79.3763 63.6685 80.3978C64.1434 81.4193 65.1615 81.9958 66.7229 82.1272Z"/>
</mask>
<path d="M52.3975 71.3365C52.4318 70.9287 52.6008 70.5874 52.9044 70.3125C53.2171 70.0484 53.5723 69.933 53.9701 69.9665L53.985 69.9678L72.6794 71.5113C72.9479 71.5339 73.2407 71.6837 73.5579 71.9608C73.8843 72.2487 74.0323 72.6317 74.0021 73.1099L73.6364 77.8115C73.5141 79.2635 73.1645 80.5611 72.5876 81.7044C72.0197 82.8585 71.2291 83.7434 70.2158 84.3592C69.2016 84.985 67.9586 85.2359 66.4867 85.112C64.806 84.9705 63.4844 84.4887 62.522 83.6665C61.5596 82.8444 60.8937 81.7718 60.5243 80.4487C60.1541 79.1355 60.0128 77.6613 60.1004 76.0261L60.2542 73.4851L53.704 72.9488L53.6891 72.9475C53.2913 72.9141 52.9657 72.7364 52.7124 72.4146C52.4682 72.1036 52.3632 71.7442 52.3975 71.3365ZM66.7229 82.1272C67.9661 82.2318 68.8984 81.8646 69.5198 81.0256C70.1405 80.1964 70.5161 79.0061 70.6467 77.4547L70.9066 74.3667L63.2675 73.7388L63.1175 76.235C63.0099 77.9887 63.1936 79.3763 63.6685 80.3978C64.1434 81.4193 65.1615 81.9958 66.7229 82.1272Z" fill="black"/>
<path d="M52.9044 70.3125L52.5952 69.9465L52.5889 69.9519L52.5828 69.9574L52.9044 70.3125ZM53.985 69.9678L53.9448 70.4451L53.9456 70.4452L53.985 69.9678ZM72.6794 71.5113L72.7195 71.0339L72.7188 71.0339L72.6794 71.5113ZM73.5579 71.9608L73.8749 71.6016L73.8731 71.6L73.5579 71.9608ZM74.0021 73.1099L74.4797 73.1471L74.4802 73.1402L74.0021 73.1099ZM73.6364 77.8115L74.1137 77.8517L74.114 77.8487L73.6364 77.8115ZM72.5876 81.7044L72.1599 81.4886L72.1577 81.4929L72.5876 81.7044ZM70.2158 84.3592L69.967 83.9498L69.9642 83.9515L70.2158 84.3592ZM60.5243 80.4487L60.9858 80.3198L60.9854 80.3187L60.5243 80.4487ZM60.1004 76.0261L59.6222 75.9972L59.622 76.0005L60.1004 76.0261ZM60.2542 73.4851L60.7323 73.5141L60.7607 73.0459L60.2933 73.0077L60.2542 73.4851ZM53.704 72.9488L53.6639 73.4262L53.665 73.4263L53.704 72.9488ZM52.7124 72.4146L52.3356 72.7105L52.336 72.711L52.7124 72.4146ZM69.5198 81.0256L69.1363 80.7385L69.1349 80.7404L69.5198 81.0256ZM70.9066 74.3667L71.384 74.4069L71.4243 73.9286L70.9459 73.8893L70.9066 74.3667ZM63.2675 73.7388L63.3068 73.2613L62.8187 73.2212L62.7893 73.71L63.2675 73.7388ZM63.1175 76.235L63.5957 76.2644L63.5957 76.2638L63.1175 76.235ZM52.8749 71.3767C52.899 71.09 53.0122 70.8611 53.2259 70.6676L52.5828 69.9574C52.1894 70.3137 51.9647 70.7675 51.9202 71.2963L52.8749 71.3767ZM53.2135 70.6785C53.4319 70.494 53.6623 70.4214 53.9299 70.4439L54.0103 69.4892C53.4823 69.4447 53.0022 69.6027 52.5952 69.9465L53.2135 70.6785ZM53.9299 70.4439L53.9448 70.4451L54.0252 69.4904L54.0103 69.4892L53.9299 70.4439ZM53.9456 70.4452L72.6399 71.9887L72.7188 71.0339L54.0244 69.4903L53.9456 70.4452ZM72.6392 71.9887C72.7631 71.9991 72.9621 72.0764 73.2428 72.3216L73.8731 71.6C73.5194 71.2911 73.1327 71.0687 72.7195 71.0339L72.6392 71.9887ZM73.241 72.3201C73.444 72.4992 73.5459 72.7321 73.524 73.0797L74.4802 73.1402C74.5187 72.5314 74.3245 71.9982 73.8749 71.6016L73.241 72.3201ZM73.5245 73.0728L73.1588 77.7744L74.114 77.8487L74.4797 73.1471L73.5245 73.0728ZM73.159 77.7713C73.0412 79.1705 72.7057 80.4072 72.1599 81.4886L73.0152 81.9203C73.6234 80.7151 73.9871 79.3565 74.1137 77.8517L73.159 77.7713ZM72.1577 81.4929C71.6266 82.5724 70.8957 83.3854 69.967 83.9498L70.4645 84.7686C71.5624 84.1014 72.4128 83.1446 73.0174 81.9159L72.1577 81.4929ZM69.9642 83.9515C69.0564 84.5116 67.9214 84.752 66.5269 84.6346L66.4465 85.5894C67.9957 85.7198 69.3468 85.4583 70.4673 84.7669L69.9642 83.9515ZM66.5269 84.6346C64.9133 84.4988 63.6976 84.0408 62.8332 83.3023L62.2109 84.0308C63.2712 84.9366 64.6987 85.4422 66.4465 85.5894L66.5269 84.6346ZM62.8332 83.3023C61.9493 82.5472 61.3318 81.5595 60.9858 80.3198L60.0629 80.5775C60.4556 81.984 61.1699 83.1415 62.2109 84.0308L62.8332 83.3023ZM60.9854 80.3187C60.632 79.065 60.4934 77.6447 60.5787 76.0518L59.622 76.0005C59.5322 77.678 59.6763 79.206 60.0633 80.5786L60.9854 80.3187ZM60.5785 76.0551L60.7323 73.5141L59.776 73.4562L59.6222 75.9972L60.5785 76.0551ZM60.2933 73.0077L53.7431 72.4713L53.665 73.4263L60.2151 73.9626L60.2933 73.0077ZM53.7442 72.4714L53.7293 72.4702L53.649 73.4249L53.6639 73.4262L53.7442 72.4714ZM53.7293 72.4702C53.4677 72.4482 53.2624 72.3388 53.0888 72.1183L52.336 72.711C52.6691 73.134 53.115 73.38 53.649 73.4249L53.7293 72.4702ZM53.0892 72.1187C52.9226 71.9066 52.8503 71.6683 52.8749 71.3767L51.9202 71.2963C51.8761 71.8201 52.0138 72.3006 52.3356 72.7105L53.0892 72.1187ZM66.6827 82.6046C68.0537 82.72 69.1639 82.3109 69.9048 81.3107L69.1349 80.7404C68.6328 81.4183 67.8784 81.7437 66.7631 81.6498L66.6827 82.6046ZM69.9034 81.3126C70.5984 80.3841 70.9895 79.0938 71.1241 77.4949L70.1693 77.4145C70.0427 78.9184 69.6826 80.0088 69.1363 80.7385L69.9034 81.3126ZM71.1241 77.4949L71.384 74.4069L70.4293 74.3266L70.1693 77.4145L71.1241 77.4949ZM70.9459 73.8893L63.3068 73.2613L63.2283 74.2162L70.8674 74.8442L70.9459 73.8893ZM62.7893 73.71L62.6393 76.2063L63.5957 76.2638L63.7457 73.7675L62.7893 73.71ZM62.6393 76.2057C62.5294 77.9986 62.7119 79.4766 63.2341 80.5998L64.1029 80.1959C63.6753 79.2761 63.4905 77.9789 63.5957 76.2644L62.6393 76.2057ZM63.2341 80.5998C63.8085 81.8353 65.0252 82.4651 66.6827 82.6046L66.7631 81.6498C65.2978 81.5265 64.4783 81.0034 64.1029 80.1959L63.2341 80.5998Z" fill="black" mask="url(#path-13-outside-2_1_372)"/>
</g>
<defs>
<filter id="filter0_d_1_372" x="0.922035" y="0" width="116.458" height="118.358" filterUnits="userSpaceOnUse" color-interpolation-filters="sRGB">
<feFlood flood-opacity="0" result="BackgroundImageFix"/>
<feColorMatrix in="SourceAlpha" type="matrix" values="0 0 0 0 0 0 0 0 0 0 0 0 0 0 0 0 0 0 127 0" result="hardAlpha"/>
<feOffset dx="-4.11986" dy="4.11986"/>
<feGaussianBlur stdDeviation="0.479053"/>
<feComposite in2="hardAlpha" operator="out"/>
<feColorMatrix type="matrix" values="0 0 0 0 0 0 0 0 0 0 0 0 0 0 0 0 0 0 0.8 0"/>
<feBlend mode="normal" in2="BackgroundImageFix" result="effect1_dropShadow_1_372"/>
<feBlend mode="normal" in="SourceGraphic" in2="effect1_dropShadow_1_372" result="shape"/>
</filter>
</defs>
</svg>
