<svg width="118" height="152" viewBox="0 0 118 152" fill="none" xmlns="http://www.w3.org/2000/svg">
<g filter="url(#filter0_d_1_326)">
<mask id="path-1-outside-1_1_326" maskUnits="userSpaceOnUse" x="14.0719" y="128.231" width="97" height="14" fill="black">
<rect fill="white" x="14.0719" y="128.231" width="97" height="14"/>
<path d="M14.0719 131.231H105.571V138.656C105.571 140.243 104.284 141.53 102.697 141.53H17.4253C15.5733 141.53 14.0719 140.029 14.0719 138.177V131.231Z"/>
</mask>
<path d="M14.0719 131.231H105.571V138.656C105.571 140.243 104.284 141.53 102.697 141.53H17.4253C15.5733 141.53 14.0719 140.029 14.0719 138.177V131.231Z" fill="#CAC9B5"/>
<path d="M14.0719 128.356H110.362L100.781 134.105H14.0719V128.356ZM110.362 138.656C110.362 140.376 108.968 141.77 107.248 141.77H17.6648C15.6805 141.77 14.0719 140.161 14.0719 138.177C14.0719 139.897 15.5733 141.291 17.4253 141.291H100.781C100.781 141.291 100.781 140.111 100.781 138.656H110.362ZM14.0719 141.53V131.231V141.53ZM110.362 128.356V138.656C110.362 140.376 108.968 141.77 107.248 141.77L100.781 141.291C100.781 141.291 100.781 140.111 100.781 138.656V134.105L110.362 128.356Z" fill="#A6A587" mask="url(#path-1-outside-1_1_326)"/>
<mask id="path-3-outside-2_1_326" maskUnits="userSpaceOnUse" x="12.1857" y="128.596" width="94" height="14" fill="black">
<rect fill="white" x="12.1857" y="128.596" width="94" height="14"/>
<path d="M17.1857 128.596H105.571V141.53H20.7786C18.7943 141.53 17.1857 139.922 17.1857 137.937V128.596Z"/>
</mask>
<path d="M17.1857 128.596H105.571H17.1857ZM105.571 141.77H16.2276C14.111 141.77 12.3952 140.054 12.3952 137.937H21.9762C21.9762 139.789 21.9762 141.291 21.9762 141.291H105.571V141.77ZM16.2276 141.77C14.111 141.77 12.3952 140.054 12.3952 137.937V128.596H21.9762V137.937C21.9762 139.789 21.9762 141.291 21.9762 141.291L16.2276 141.77ZM105.571 128.596V141.53V128.596Z" fill="#E3DFD0" mask="url(#path-3-outside-2_1_326)"/>
<rect x="11.6767" y="118.536" width="99.6431" height="25.3898" rx="5.98817" stroke="black" stroke-width="4.79053"/>
<mask id="path-6-outside-3_1_326" maskUnits="userSpaceOnUse" x="10" y="4" width="104" height="121" fill="black">
<rect fill="white" x="10" y="4" width="104" height="121"/>
<path d="M10 8.11385C10 6.39412 11.3941 5 13.1138 5H99.8225C101.542 5 102.936 6.39412 102.936 8.11385V121.17C102.936 122.89 101.542 124.284 99.8225 124.284H13.1138C11.3941 124.284 10 122.89 10 121.17V8.11385Z"/>
</mask>
<path d="M10 8.11385C10 6.39412 11.3941 5 13.1138 5H99.8225C101.542 5 102.936 6.39412 102.936 8.11385V121.17C102.936 122.89 101.542 124.284 99.8225 124.284H13.1138C11.3941 124.284 10 122.89 10 121.17V8.11385Z" fill="#CAC9B5"/>
<path d="M10 8.11385C10 6.26183 11.5014 4.76047 13.3534 4.76047H110.122C111.974 4.76047 113.476 6.26183 113.476 8.11385H92.3972C92.3972 6.5264 92.3972 5.23953 92.3972 5.23953H13.1138C11.3941 5.23953 10 6.5264 10 8.11385ZM113.476 121.17C113.476 123.022 111.974 124.524 110.122 124.524H13.3534C11.5014 124.524 10 123.022 10 121.17C10 122.758 11.3941 124.045 13.1138 124.045H92.3972C92.3972 124.045 92.3972 122.758 92.3972 121.17H113.476ZM10 124.284V5V124.284ZM110.122 4.76047C111.974 4.76047 113.476 6.26183 113.476 8.11385V121.17C113.476 123.022 111.974 124.524 110.122 124.524L92.3972 124.045C92.3972 124.045 92.3972 122.758 92.3972 121.17V8.11385C92.3972 6.5264 92.3972 5.23953 92.3972 5.23953L110.122 4.76047Z" fill="#A6A587" mask="url(#path-6-outside-3_1_326)"/>
<mask id="path-8-outside-4_1_326" maskUnits="userSpaceOnUse" x="9.07193" y="4" width="105" height="121" fill="black">
<rect fill="white" x="9.07193" y="4" width="105" height="121"/>
<path d="M14.0719 8.11385C14.0719 6.39412 15.466 5 17.1858 5H110.122C111.842 5 113.236 6.39412 113.236 8.11385V121.17C113.236 122.89 111.842 124.284 110.122 124.284H17.1858C15.466 124.284 14.0719 122.89 14.0719 121.17V8.11385Z"/>
</mask>
<path d="M9.2814 8.11385C9.2814 6.26183 10.7828 4.76047 12.6348 4.76047H109.883C111.735 4.76047 113.236 6.26183 113.236 8.11385C113.236 6.5264 111.842 5.23953 110.122 5.23953H18.8625C18.8625 5.23953 18.8625 6.5264 18.8625 8.11385H9.2814ZM113.236 121.17C113.236 123.022 111.735 124.524 109.883 124.524H12.6348C10.7828 124.524 9.2814 123.022 9.2814 121.17H18.8625C18.8625 122.758 18.8625 124.045 18.8625 124.045H110.122C111.842 124.045 113.236 122.758 113.236 121.17ZM12.6348 124.524C10.7828 124.524 9.2814 123.022 9.2814 121.17V8.11385C9.2814 6.26183 10.7828 4.76047 12.6348 4.76047L18.8625 5.23953C18.8625 5.23953 18.8625 6.5264 18.8625 8.11385V121.17C18.8625 122.758 18.8625 124.045 18.8625 124.045L12.6348 124.524ZM113.236 5V124.284V5Z" fill="#E3DFD0" mask="url(#path-8-outside-4_1_326)"/>
<rect x="7.7245" y="2.7245" width="107.787" height="123.835" rx="5.8684" stroke="black" stroke-width="4.55101"/>
<rect x="20.5391" y="16.0182" width="82.1576" height="68.2651" fill="#71856B"/>
<rect x="20.1798" y="15.4194" width="83.3553" height="69.7023" rx="3.95219" stroke="black" stroke-width="4.55101" stroke-linejoin="round"/>
<mask id="path-13-outside-5_1_326" maskUnits="userSpaceOnUse" x="15.1857" y="107.673" width="13" height="12" fill="black">
<rect fill="white" x="15.1857" y="107.673" width="13" height="12"/>
<path d="M17.1857 110.152C17.1857 109.888 17.4002 109.673 17.6648 109.673H25.3296C25.5942 109.673 25.8087 109.888 25.8087 110.152V117.098C25.8087 117.363 25.5942 117.577 25.3296 117.577H17.6648C17.4002 117.577 17.1857 117.363 17.1857 117.098V110.152Z"/>
</mask>
<path d="M15.509 109.913C15.509 108.722 16.4742 107.757 17.6648 107.757H25.3296C26.5202 107.757 27.4853 108.722 27.4853 109.913L24.132 111.589H18.8624L15.509 109.913ZM27.4853 117.338C27.4853 118.529 26.5202 119.494 25.3296 119.494H17.6648C16.4742 119.494 15.509 118.529 15.509 117.338L18.8624 115.661H24.132L27.4853 117.338ZM17.6648 119.494C16.4742 119.494 15.509 118.529 15.509 117.338V109.913C15.509 108.722 16.4742 107.757 17.6648 107.757L18.8624 111.589V115.661L17.6648 119.494ZM25.3296 107.757C26.5202 107.757 27.4853 108.722 27.4853 109.913V117.338C27.4853 118.529 26.5202 119.494 25.3296 119.494L24.132 115.661V111.589L25.3296 107.757Z" fill="#414141" mask="url(#path-13-outside-5_1_326)"/>
<rect x="91.6785" y="131.47" width="13.8925" height="6.94627" rx="1.43716" fill="#A6A587" stroke="black" stroke-width="1.91621"/>
<path fill-rule="evenodd" clip-rule="evenodd" d="M88.5757 103.206C88.6967 101.863 89.8254 100.811 91.1998 100.811H102.218C104.07 100.811 105.571 102.312 105.571 104.164V110.871C105.571 112.723 104.07 114.224 102.218 114.224H91.1998C89.7446 114.224 88.565 113.045 88.565 111.589V110.631H65.3306C63.6109 110.631 62.2168 109.237 62.2168 107.517V107.038C62.2168 104.922 63.9326 103.206 66.0492 103.206H88.5757ZM101.978 106.32H101.169H100.644H99.8225H91.8556H91.1998C90.8029 106.32 90.4812 106.642 90.4812 107.038V108.236H91.3416L91.8556 106.32L92.0837 108.236H99.8225H100.994H101.978C101.995 108.236 102.012 108.235 102.029 108.234C102.178 108.224 102.319 108.167 102.434 108.073C102.452 108.058 102.469 108.042 102.486 108.026C102.492 108.02 102.497 108.015 102.502 108.009C102.623 107.881 102.697 107.708 102.697 107.517V107.038C102.697 106.845 102.621 106.67 102.497 106.541C102.366 106.405 102.182 106.32 101.978 106.32ZM92.3689 110.631H102.457C102.562 110.631 102.665 110.626 102.767 110.616C102.635 110.772 102.438 110.871 102.218 110.871H101.26H100.302H92.3974L92.3689 110.631ZM90.6991 110.631H90.6642C90.673 110.641 90.6821 110.651 90.6914 110.66L90.6991 110.631ZM92.3974 110.871L90.6963 110.665C90.826 110.792 91.0037 110.871 91.1998 110.871H91.7986H92.3974ZM88.565 108.236V106.32H68.4445H67.532H66.0492C65.6524 106.32 65.3306 106.642 65.3306 107.038V107.517C65.3306 107.914 65.6524 108.236 66.0492 108.236H67.0606H68.4445H88.565Z" fill="#BEBBA9"/>
<path fill-rule="evenodd" clip-rule="evenodd" d="M90.4808 108.236H66.0492C65.6523 108.236 65.3306 107.914 65.3306 107.517V107.038C65.3306 106.642 65.6523 106.32 66.0492 106.32H91.1905C91.1934 106.32 91.1964 106.32 91.1993 106.32H102.697C102.829 106.32 102.936 106.427 102.936 106.559V109.913C102.936 111.103 101.971 112.068 100.78 112.068H92.6365C91.4459 112.068 90.4808 111.103 90.4808 109.913V108.236Z" fill="#414141"/>
<g style="mix-blend-mode:soft-light">
<rect x="24.3716" y="21.2878" width="4.55101" height="9.58107" rx="2.2755" fill="#D9D9D9" style="mix-blend-mode:plus-lighter"/>
</g>
<g style="mix-blend-mode:soft-light">
<rect x="24.3716" y="32.785" width="4.55101" height="33.0547" rx="2.2755" fill="#D9D9D9" style="mix-blend-mode:plus-lighter"/>
</g>
<path d="M31.3179 49.0105C31.3179 44.8118 34.7216 41.4081 38.9202 41.4081C43.1189 41.4081 46.5226 44.8118 46.5226 49.0105C46.5226 53.2092 43.1189 56.6129 38.9202 56.6129C34.7216 56.6129 31.3179 53.2092 31.3179 49.0105Z" fill="black"/>
<path d="M76.8282 49.0106C76.8282 44.8119 80.2319 41.4082 84.4305 41.4082C88.6292 41.4082 92.0329 44.8119 92.0329 49.0106C92.0329 53.2092 88.6292 56.6129 84.4305 56.6129C80.2319 56.6129 76.8282 53.2092 76.8282 49.0106Z" fill="black"/>
<rect x="61.7275" y="42.1684" width="3.04095" height="9.12284" rx="1.52047" fill="black"/>
<rect x="58.6866" y="48.2505" width="6.08189" height="3.04095" rx="1.52047" fill="black"/>
<path d="M69.3296 55.0923C69.3296 57.1917 65.9259 58.8935 61.7272 58.8935C57.5285 58.8935 54.1248 57.1917 54.1248 55.0923" stroke="black" stroke-width="3.04095" stroke-linecap="round"/>
<ellipse cx="41.581" cy="46.7298" rx="2.66083" ry="2.28071" fill="white"/>
<ellipse cx="87.0913" cy="46.7298" rx="2.66083" ry="2.28071" fill="white"/>
<ellipse cx="38.1602" cy="50.1509" rx="1.52047" ry="1.14036" fill="white"/>
<ellipse cx="83.67" cy="50.1509" rx="1.52047" ry="1.14036" fill="white"/>
</g>
<defs>
<filter id="filter0_d_1_326" x="0.37104" y="0.448975" width="117.416" height="150.95" filterUnits="userSpaceOnUse" color-interpolation-filters="sRGB">
<feFlood flood-opacity="0" result="BackgroundImageFix"/>
<feColorMatrix in="SourceAlpha" type="matrix" values="0 0 0 0 0 0 0 0 0 0 0 0 0 0 0 0 0 0 127 0" result="hardAlpha"/>
<feOffset dx="-4.11986" dy="4.11986"/>
<feGaussianBlur stdDeviation="0.479053"/>
<feComposite in2="hardAlpha" operator="out"/>
<feColorMatrix type="matrix" values="0 0 0 0 0 0 0 0 0 0 0 0 0 0 0 0 0 0 0.8 0"/>
<feBlend mode="normal" in2="BackgroundImageFix" result="effect1_dropShadow_1_326"/>
<feBlend mode="normal" in="SourceGraphic" in2="effect1_dropShadow_1_326" result="shape"/>
</filter>
</defs>
</svg>
