<svg width="140" height="196" viewBox="0 0 140 196" fill="none" xmlns="http://www.w3.org/2000/svg">
<mask id="path-1-outside-1_2_994" maskUnits="userSpaceOnUse" x="22.0719" y="128.231" width="97" height="14" fill="black">
<rect fill="white" x="22.0719" y="128.231" width="97" height="14"/>
<path d="M22.0719 131.231H113.571V138.656C113.571 140.243 112.284 141.53 110.697 141.53H25.4253C23.5733 141.53 22.0719 140.029 22.0719 138.177V131.231Z"/>
</mask>
<path d="M22.0719 131.231H113.571V138.656C113.571 140.243 112.284 141.53 110.697 141.53H25.4253C23.5733 141.53 22.0719 140.029 22.0719 138.177V131.231Z" fill="#CAC9B5"/>
<path d="M22.0719 128.356H118.362L108.781 134.105H22.0719V128.356ZM118.362 138.656C118.362 140.376 116.968 141.77 115.248 141.77H25.6648C23.6805 141.77 22.0719 140.161 22.0719 138.177C22.0719 139.897 23.5733 141.291 25.4253 141.291H108.781C108.781 141.291 108.781 140.111 108.781 138.656H118.362ZM22.0719 141.53V131.231V141.53ZM118.362 128.356V138.656C118.362 140.376 116.968 141.77 115.248 141.77L108.781 141.291C108.781 141.291 108.781 140.111 108.781 138.656V134.105L118.362 128.356Z" fill="#A6A587" mask="url(#path-1-outside-1_2_994)"/>
<mask id="path-3-outside-2_2_994" maskUnits="userSpaceOnUse" x="20.1857" y="128.596" width="94" height="14" fill="black">
<rect fill="white" x="20.1857" y="128.596" width="94" height="14"/>
<path d="M25.1857 128.596H113.571V141.53H28.7786C26.7943 141.53 25.1857 139.922 25.1857 137.937V128.596Z"/>
</mask>
<path d="M25.1857 128.596H113.571H25.1857ZM113.571 141.77H24.2276C22.111 141.77 20.3952 140.054 20.3952 137.937H29.9762C29.9762 139.789 29.9762 141.291 29.9762 141.291H113.571V141.77ZM24.2276 141.77C22.111 141.77 20.3952 140.054 20.3952 137.937V128.596H29.9762V137.937C29.9762 139.789 29.9762 141.291 29.9762 141.291L24.2276 141.77ZM113.571 128.596V141.53V128.596Z" fill="#E3DFD0" mask="url(#path-3-outside-2_2_994)"/>
<rect x="19.6767" y="118.536" width="99.6431" height="25.3898" rx="5.98817" stroke="black" stroke-width="4.79053"/>
<mask id="path-6-outside-3_2_994" maskUnits="userSpaceOnUse" x="18" y="4" width="104" height="121" fill="black">
<rect fill="white" x="18" y="4" width="104" height="121"/>
<path d="M18 8.11385C18 6.39412 19.3941 5 21.1138 5H107.822C109.542 5 110.936 6.39412 110.936 8.11385V121.17C110.936 122.89 109.542 124.284 107.822 124.284H21.1138C19.3941 124.284 18 122.89 18 121.17V8.11385Z"/>
</mask>
<path d="M18 8.11385C18 6.39412 19.3941 5 21.1138 5H107.822C109.542 5 110.936 6.39412 110.936 8.11385V121.17C110.936 122.89 109.542 124.284 107.822 124.284H21.1138C19.3941 124.284 18 122.89 18 121.17V8.11385Z" fill="#CAC9B5"/>
<path d="M18 8.11385C18 6.26183 19.5014 4.76047 21.3534 4.76047H118.122C119.974 4.76047 121.476 6.26183 121.476 8.11385H100.397C100.397 6.5264 100.397 5.23953 100.397 5.23953H21.1138C19.3941 5.23953 18 6.5264 18 8.11385ZM121.476 121.17C121.476 123.022 119.974 124.524 118.122 124.524H21.3534C19.5014 124.524 18 123.022 18 121.17C18 122.758 19.3941 124.045 21.1138 124.045H100.397C100.397 124.045 100.397 122.758 100.397 121.17H121.476ZM18 124.284V5V124.284ZM118.122 4.76047C119.974 4.76047 121.476 6.26183 121.476 8.11385V121.17C121.476 123.022 119.974 124.524 118.122 124.524L100.397 124.045C100.397 124.045 100.397 122.758 100.397 121.17V8.11385C100.397 6.5264 100.397 5.23953 100.397 5.23953L118.122 4.76047Z" fill="#A6A587" mask="url(#path-6-outside-3_2_994)"/>
<mask id="path-8-outside-4_2_994" maskUnits="userSpaceOnUse" x="17.0719" y="4" width="105" height="121" fill="black">
<rect fill="white" x="17.0719" y="4" width="105" height="121"/>
<path d="M22.0719 8.11385C22.0719 6.39412 23.466 5 25.1858 5H118.122C119.842 5 121.236 6.39412 121.236 8.11385V121.17C121.236 122.89 119.842 124.284 118.122 124.284H25.1858C23.466 124.284 22.0719 122.89 22.0719 121.17V8.11385Z"/>
</mask>
<path d="M17.2814 8.11385C17.2814 6.26183 18.7828 4.76047 20.6348 4.76047H117.883C119.735 4.76047 121.236 6.26183 121.236 8.11385C121.236 6.5264 119.842 5.23953 118.122 5.23953H26.8625C26.8625 5.23953 26.8625 6.5264 26.8625 8.11385H17.2814ZM121.236 121.17C121.236 123.022 119.735 124.524 117.883 124.524H20.6348C18.7828 124.524 17.2814 123.022 17.2814 121.17H26.8625C26.8625 122.758 26.8625 124.045 26.8625 124.045H118.122C119.842 124.045 121.236 122.758 121.236 121.17ZM20.6348 124.524C18.7828 124.524 17.2814 123.022 17.2814 121.17V8.11385C17.2814 6.26183 18.7828 4.76047 20.6348 4.76047L26.8625 5.23953C26.8625 5.23953 26.8625 6.5264 26.8625 8.11385V121.17C26.8625 122.758 26.8625 124.045 26.8625 124.045L20.6348 124.524ZM121.236 5V124.284V5Z" fill="#E3DFD0" mask="url(#path-8-outside-4_2_994)"/>
<rect x="15.7245" y="2.7245" width="107.787" height="123.835" rx="5.8684" stroke="black" stroke-width="4.55101"/>
<rect x="28.5391" y="16.0182" width="82.1576" height="68.2651" fill="#71856B"/>
<rect x="28.1798" y="15.4194" width="83.3553" height="69.7023" rx="3.95219" stroke="black" stroke-width="4.55101" stroke-linejoin="round"/>
<mask id="path-13-outside-5_2_994" maskUnits="userSpaceOnUse" x="23.1857" y="107.673" width="13" height="12" fill="black">
<rect fill="white" x="23.1857" y="107.673" width="13" height="12"/>
<path d="M25.1857 110.152C25.1857 109.888 25.4002 109.673 25.6648 109.673H33.3296C33.5942 109.673 33.8087 109.888 33.8087 110.152V117.098C33.8087 117.363 33.5942 117.577 33.3296 117.577H25.6648C25.4002 117.577 25.1857 117.363 25.1857 117.098V110.152Z"/>
</mask>
<path d="M23.509 109.913C23.509 108.722 24.4742 107.757 25.6648 107.757H33.3296C34.5202 107.757 35.4853 108.722 35.4853 109.913L32.132 111.589H26.8624L23.509 109.913ZM35.4853 117.338C35.4853 118.529 34.5202 119.494 33.3296 119.494H25.6648C24.4742 119.494 23.509 118.529 23.509 117.338L26.8624 115.661H32.132L35.4853 117.338ZM25.6648 119.494C24.4742 119.494 23.509 118.529 23.509 117.338V109.913C23.509 108.722 24.4742 107.757 25.6648 107.757L26.8624 111.589V115.661L25.6648 119.494ZM33.3296 107.757C34.5202 107.757 35.4853 108.722 35.4853 109.913V117.338C35.4853 118.529 34.5202 119.494 33.3296 119.494L32.132 115.661V111.589L33.3296 107.757Z" fill="#414141" mask="url(#path-13-outside-5_2_994)"/>
<rect x="99.6785" y="131.47" width="13.8925" height="6.94627" rx="1.43716" fill="#A6A587" stroke="black" stroke-width="1.91621"/>
<path fill-rule="evenodd" clip-rule="evenodd" d="M96.5757 103.206C96.6967 101.863 97.8254 100.811 99.1998 100.811H110.218C112.07 100.811 113.571 102.312 113.571 104.164V110.871C113.571 112.723 112.07 114.224 110.218 114.224H99.1998C97.7446 114.224 96.565 113.045 96.565 111.589V110.631H73.3306C71.6109 110.631 70.2168 109.237 70.2168 107.517V107.038C70.2168 104.922 71.9326 103.206 74.0492 103.206H96.5757ZM109.978 106.32H109.169H108.644H107.822H99.8556H99.1998C98.8029 106.32 98.4812 106.642 98.4812 107.038V108.236H99.3416L99.8556 106.32L100.084 108.236H107.822H108.994H109.978C109.995 108.236 110.012 108.235 110.029 108.234C110.178 108.224 110.319 108.167 110.434 108.073C110.452 108.058 110.469 108.042 110.486 108.026C110.492 108.02 110.497 108.015 110.502 108.009C110.623 107.881 110.697 107.708 110.697 107.517V107.038C110.697 106.845 110.621 106.67 110.497 106.541C110.366 106.405 110.182 106.32 109.978 106.32ZM100.369 110.631H110.457C110.562 110.631 110.665 110.626 110.767 110.616C110.635 110.772 110.438 110.871 110.218 110.871H109.26H108.302H100.397L100.369 110.631ZM98.6991 110.631H98.6642C98.673 110.641 98.6821 110.651 98.6914 110.66L98.6991 110.631ZM100.397 110.871L98.6963 110.665C98.826 110.792 99.0037 110.871 99.1998 110.871H99.7986H100.397ZM96.565 108.236V106.32H76.4445H75.532H74.0492C73.6524 106.32 73.3306 106.642 73.3306 107.038V107.517C73.3306 107.914 73.6524 108.236 74.0492 108.236H75.0606H76.4445H96.565Z" fill="#BEBBA9"/>
<path fill-rule="evenodd" clip-rule="evenodd" d="M98.4808 108.236H74.0492C73.6523 108.236 73.3306 107.914 73.3306 107.517V107.038C73.3306 106.642 73.6523 106.32 74.0492 106.32H99.1905C99.1934 106.32 99.1964 106.32 99.1993 106.32H110.697C110.829 106.32 110.936 106.427 110.936 106.559V109.913C110.936 111.103 109.971 112.068 108.78 112.068H100.637C99.4459 112.068 98.4808 111.103 98.4808 109.913V108.236Z" fill="#414141"/>
<g style="mix-blend-mode:soft-light">
<rect x="32.3716" y="21.2878" width="4.55101" height="9.58107" rx="2.2755" fill="#D9D9D9" style="mix-blend-mode:plus-lighter"/>
</g>
<g style="mix-blend-mode:soft-light">
<rect x="32.3716" y="32.785" width="4.55101" height="33.0547" rx="2.2755" fill="#D9D9D9" style="mix-blend-mode:plus-lighter"/>
</g>
<path d="M39.3179 49.0105C39.3179 44.8118 42.7216 41.4081 46.9202 41.4081C51.1189 41.4081 54.5226 44.8118 54.5226 49.0105C54.5226 53.2092 51.1189 56.6129 46.9202 56.6129C42.7216 56.6129 39.3179 53.2092 39.3179 49.0105Z" fill="black"/>
<path d="M84.8282 49.0106C84.8282 44.8119 88.2319 41.4082 92.4305 41.4082C96.6292 41.4082 100.033 44.8119 100.033 49.0106C100.033 53.2092 96.6292 56.6129 92.4305 56.6129C88.2319 56.6129 84.8282 53.2092 84.8282 49.0106Z" fill="black"/>
<rect x="69.7275" y="42.1684" width="3.04095" height="9.12284" rx="1.52047" fill="black"/>
<rect x="66.6866" y="48.2505" width="6.08189" height="3.04095" rx="1.52047" fill="black"/>
<path d="M77.3296 55.0923C77.3296 57.1917 73.9259 58.8935 69.7272 58.8935C65.5285 58.8935 62.1248 57.1917 62.1248 55.0923" stroke="black" stroke-width="3.04095" stroke-linecap="round"/>
<ellipse cx="49.581" cy="46.7298" rx="2.66083" ry="2.28071" fill="white"/>
<ellipse cx="95.0913" cy="46.7298" rx="2.66083" ry="2.28071" fill="white"/>
<ellipse cx="46.1602" cy="50.1509" rx="1.52047" ry="1.14036" fill="white"/>
<ellipse cx="91.67" cy="50.1509" rx="1.52047" ry="1.14036" fill="white"/>
<rect x="2.25" y="158.25" width="135.5" height="31.5" rx="10.75" fill="white" stroke="black" stroke-width="4.5"/>
<path d="M26 180V170H32V172H34V174H32V176H28V180H26ZM28 174H31.92V172H28V174ZM38 180V170H44V172H46V174H44V178H46V180H44V178H42V176H40V180H38ZM40 174H43.92V172H40V174ZM52 180V178H50V172H52V170H56V172H58V178H56V180H52ZM52 177.92H56V172.08H52V177.92ZM68 178V170H70V178H68ZM64 180V178H62V176H64V178H68V180H64ZM74 180V170H80V172H76V174H80V176H76V178H80V180H74ZM90 174V172H86V170H90V172H92V174H90ZM86 180V178H84V172H86V178H90V180H86ZM90 178V176H92V178H90ZM98 180V172H96V170H102V172H100V180H98ZM108 172V170H114V172H108ZM112 178V176H108V174H106V172H108V174H112V176H114V178H112ZM106 180V178H112V180H106Z" fill="black"/>
</svg>
