<svg width="140" height="195" viewBox="0 0 140 195" fill="none" xmlns="http://www.w3.org/2000/svg">
<rect x="27.5989" y="31.4911" width="90.1159" height="89.2237" fill="#039DDB"/>
<path d="M115.17 102.526C115.17 115.584 95.1969 126.17 70.5585 126.17C45.92 126.17 17.9165 115.584 17.9165 102.526C17.9165 89.4674 37.8899 78.8815 62.5283 78.8815C87.1668 78.8815 115.17 89.4674 115.17 102.526Z" fill="#62BB47"/>
<ellipse cx="96.3011" cy="44.4287" rx="18.737" ry="16.5064" fill="#FDB827"/>
<path fill-rule="evenodd" clip-rule="evenodd" d="M29.3836 19C21.992 19 16 24.992 16 32.3836V112.685C16 120.076 21.992 126.068 29.3836 126.068H109.685C117.076 126.068 123.068 120.076 123.068 112.685V32.3836C123.068 24.992 117.076 19 109.685 19H29.3836ZM34.4554 34.1679C33.1326 34.1679 32.0602 35.2403 32.0602 36.5631V107.613C32.0602 108.936 33.1326 110.008 34.4554 110.008H105.505C106.828 110.008 107.9 108.936 107.9 107.613V36.5631C107.9 35.2403 106.828 34.1679 105.505 34.1679H34.4554Z" fill="white"/>
<path d="M18.1874 32.3836C18.1874 26.2001 23.2001 21.1874 29.3836 21.1874V16.8126C20.7839 16.8126 13.8126 23.784 13.8126 32.3836H18.1874ZM18.1874 112.685V32.3836H13.8126V112.685H18.1874ZM29.3836 123.881C23.2001 123.881 18.1874 118.868 18.1874 112.685H13.8126C13.8126 121.284 20.784 128.256 29.3836 128.256V123.881ZM109.685 123.881H29.3836V128.256H109.685V123.881ZM120.881 112.685C120.881 118.868 115.868 123.881 109.685 123.881V128.256C118.284 128.256 125.256 121.284 125.256 112.685H120.881ZM120.881 32.3836V112.685H125.256V32.3836H120.881ZM109.685 21.1874C115.868 21.1874 120.881 26.2001 120.881 32.3836H125.256C125.256 23.7839 118.284 16.8126 109.685 16.8126V21.1874ZM29.3836 21.1874H109.685V16.8126H29.3836V21.1874ZM34.2476 36.5631C34.2476 36.4483 34.3406 36.3553 34.4554 36.3553V31.9804C31.9245 31.9804 29.8727 34.0322 29.8727 36.5631H34.2476ZM34.2476 107.613V36.5631H29.8727V107.613H34.2476ZM34.4554 107.821C34.3406 107.821 34.2476 107.728 34.2476 107.613H29.8727C29.8727 110.144 31.9245 112.195 34.4554 112.195V107.821ZM105.505 107.821H34.4554V112.195H105.505V107.821ZM105.713 107.613C105.713 107.728 105.62 107.821 105.505 107.821V112.195C108.036 112.195 110.088 110.144 110.088 107.613H105.713ZM105.713 36.5631V107.613H110.088V36.5631H105.713ZM105.505 36.3553C105.62 36.3553 105.713 36.4483 105.713 36.5631H110.088C110.088 34.0322 108.036 31.9804 105.505 31.9804V36.3553ZM34.4554 36.3553H105.505V31.9804H34.4554V36.3553Z" fill="black"/>
<rect width="18.8623" height="3.83243" rx="1.91621" transform="matrix(-0.866025 -0.5 -0.5 0.866025 57.4854 67.9531)" fill="black"/>
<rect width="18.8623" height="3.83243" rx="1.91621" transform="matrix(-0.866025 0.5 0.5 0.866025 55.6318 66.1843)" fill="black"/>
<rect x="82.0428" y="67.9531" width="18.8623" height="3.83243" rx="1.91621" transform="rotate(-30 82.0428 67.9531)" fill="black"/>
<rect x="83.8963" y="66.1843" width="18.8623" height="3.83243" rx="1.91621" transform="rotate(30 83.8963 66.1843)" fill="black"/>
<rect x="69.6439" y="63.3541" width="3.04095" height="9.12284" rx="1.52047" fill="black"/>
<rect x="66.603" y="69.4359" width="6.08189" height="3.04095" rx="1.52047" fill="black"/>
<path d="M77.3191 76.2468C77.3191 79.9509 73.8874 82.9536 69.6542 82.9536C65.4211 82.9536 61.9894 79.9509 61.9894 76.2468" stroke="black" stroke-width="3.04095" stroke-linecap="round"/>
<rect x="2.25" y="157.25" width="135.5" height="31.5" rx="10.75" fill="white" stroke="black" stroke-width="4.5"/>
<path d="M43 179V171H45V169H49V171H51V179H49V175H45V179H43ZM45 173H49V171.08H45V173ZM55 179V169H61V171H63V177H61V179H55ZM57 173H60.92V171H57V173ZM57 177H60.92V175H57V177ZM69 179V177H67V171H69V169H73V171H75V177H73V179H69ZM69 176.92H73V171.08H69V176.92ZM81 179V177H79V169H81V177H85V179H81ZM85 177V169H87V177H85ZM93 179V171H91V169H97V171H95V179H93Z" fill="black"/>
</svg>
