<svg width="118" height="118" viewBox="0 0 118 118" fill="none" xmlns="http://www.w3.org/2000/svg">
<g filter="url(#filter0_d_1_396)">
<rect x="19.5989" y="15.4911" width="90.1159" height="89.2237" fill="#039DDB"/>
<path d="M107.17 86.5258C107.17 99.5842 87.1969 110.17 62.5585 110.17C37.92 110.17 9.9165 99.5842 9.9165 86.5258C9.9165 73.4674 29.8899 62.8815 54.5283 62.8815C79.1668 62.8815 107.17 73.4674 107.17 86.5258Z" fill="#62BB47"/>
<ellipse cx="88.3011" cy="28.4287" rx="18.737" ry="16.5064" fill="#FDB827"/>
<path fill-rule="evenodd" clip-rule="evenodd" d="M21.3836 3C13.992 3 8 8.99203 8 16.3836V96.6849C8 104.076 13.992 110.068 21.3836 110.068H101.685C109.076 110.068 115.068 104.076 115.068 96.6849V16.3836C115.068 8.99202 109.076 3 101.685 3H21.3836ZM26.4554 18.1679C25.1326 18.1679 24.0602 19.2403 24.0602 20.5631V91.6127C24.0602 92.9356 25.1326 94.008 26.4554 94.008H97.505C98.8279 94.008 99.9003 92.9356 99.9003 91.6127V20.5631C99.9003 19.2403 98.8279 18.1679 97.505 18.1679H26.4554Z" fill="white"/>
<path d="M10.1874 16.3836C10.1874 10.2001 15.2001 5.18742 21.3836 5.18742V0.812581C12.7839 0.812581 5.81258 7.78395 5.81258 16.3836H10.1874ZM10.1874 96.6849V16.3836H5.81258V96.6849H10.1874ZM21.3836 107.881C15.2001 107.881 10.1874 102.868 10.1874 96.6849H5.81258C5.81258 105.284 12.784 112.256 21.3836 112.256V107.881ZM101.685 107.881H21.3836V112.256H101.685V107.881ZM112.881 96.6849C112.881 102.868 107.868 107.881 101.685 107.881V112.256C110.284 112.256 117.256 105.284 117.256 96.6849H112.881ZM112.881 16.3836V96.6849H117.256V16.3836H112.881ZM101.685 5.18742C107.868 5.18742 112.881 10.2001 112.881 16.3836H117.256C117.256 7.78394 110.284 0.812581 101.685 0.812581V5.18742ZM21.3836 5.18742H101.685V0.812581H21.3836V5.18742ZM26.2476 20.5631C26.2476 20.4483 26.3406 20.3553 26.4554 20.3553V15.9804C23.9245 15.9804 21.8727 18.0322 21.8727 20.5631H26.2476ZM26.2476 91.6127V20.5631H21.8727V91.6127H26.2476ZM26.4554 91.8206C26.3406 91.8206 26.2476 91.7275 26.2476 91.6127H21.8727C21.8727 94.1437 23.9245 96.1954 26.4554 96.1954V91.8206ZM97.505 91.8206H26.4554V96.1954H97.505V91.8206ZM97.7129 91.6127C97.7129 91.7275 97.6198 91.8206 97.505 91.8206V96.1954C100.036 96.1954 102.088 94.1437 102.088 91.6127H97.7129ZM97.7129 20.5631V91.6127H102.088V20.5631H97.7129ZM97.505 20.3553C97.6198 20.3553 97.7129 20.4483 97.7129 20.5631H102.088C102.088 18.0322 100.036 15.9804 97.505 15.9804V20.3553ZM26.4554 20.3553H97.505V15.9804H26.4554V20.3553Z" fill="black"/>
<rect width="18.8623" height="3.83243" rx="1.91621" transform="matrix(-0.866025 -0.5 -0.5 0.866025 49.4854 51.9531)" fill="black"/>
<rect width="18.8623" height="3.83243" rx="1.91621" transform="matrix(-0.866025 0.5 0.5 0.866025 47.6318 50.1843)" fill="black"/>
<rect x="74.0428" y="51.9531" width="18.8623" height="3.83243" rx="1.91621" transform="rotate(-30 74.0428 51.9531)" fill="black"/>
<rect x="75.8963" y="50.1843" width="18.8623" height="3.83243" rx="1.91621" transform="rotate(30 75.8963 50.1843)" fill="black"/>
<rect x="61.6439" y="47.3541" width="3.04095" height="9.12284" rx="1.52047" fill="black"/>
<rect x="58.603" y="53.4359" width="6.08189" height="3.04095" rx="1.52047" fill="black"/>
<path d="M69.3191 60.2468C69.3191 63.9509 65.8874 66.9536 61.6542 66.9536C57.4211 66.9536 53.9894 63.9509 53.9894 60.2468" stroke="black" stroke-width="3.04095" stroke-linecap="round"/>
</g>
<defs>
<filter id="filter0_d_1_396" x="0.734626" y="0.812561" width="116.521" height="116.521" filterUnits="userSpaceOnUse" color-interpolation-filters="sRGB">
<feFlood flood-opacity="0" result="BackgroundImageFix"/>
<feColorMatrix in="SourceAlpha" type="matrix" values="0 0 0 0 0 0 0 0 0 0 0 0 0 0 0 0 0 0 127 0" result="hardAlpha"/>
<feOffset dx="-4.11986" dy="4.11986"/>
<feGaussianBlur stdDeviation="0.479053"/>
<feComposite in2="hardAlpha" operator="out"/>
<feColorMatrix type="matrix" values="0 0 0 0 0 0 0 0 0 0 0 0 0 0 0 0 0 0 0.8 0"/>
<feBlend mode="normal" in2="BackgroundImageFix" result="effect1_dropShadow_1_396"/>
<feBlend mode="normal" in="SourceGraphic" in2="effect1_dropShadow_1_396" result="shape"/>
</filter>
</defs>
</svg>
