<svg width="140" height="195" viewBox="0 0 140 195" fill="none" xmlns="http://www.w3.org/2000/svg">
<path d="M102.039 114.929C102.039 121.685 90.0151 128.005 68.9678 128.005C47.9205 128.005 35.3637 124.487 35.3637 117.731L17.4676 33.4005C17.2989 33.0135 17.2127 32.6131 17.2127 32.1993L17.4676 33.4005C20.0326 39.2847 41.6665 42.0809 69.3072 42.0809C96.7443 42.0809 119.789 37.5407 122.822 31.5L123.161 30.1414C123.161 30.6016 123.046 31.0548 122.822 31.5L102.039 114.929Z" fill="#F6821F"/>
<path d="M102.039 114.929C102.039 121.685 90.0151 128.005 68.9678 128.005C47.9205 128.005 35.3637 124.487 35.3637 117.731L17.2127 32.1993C17.2127 38.9048 39.8484 42.0809 69.3072 42.0809C98.766 42.0809 123.161 36.8469 123.161 30.1414L102.039 114.929Z" stroke="black" stroke-width="4.40849"/>
<path d="M117.831 50.8494C117.831 58.711 94.7645 65.6316 67.8153 65.6316C40.8661 65.6316 20.8494 57.616 20.8494 49.7544" stroke="black" stroke-width="4.40849"/>
<path d="M112.376 72.1693C112.376 79.1663 92.0454 86.6455 68.1281 86.6455C44.2107 86.6455 26.3047 82.4352 26.3047 75.4381" stroke="black" stroke-width="4.40849"/>
<path d="M106.921 95.0511C106.921 102.048 93.2578 108.593 69.3404 108.593C45.423 108.593 31.1539 104.383 31.1539 97.386" stroke="black" stroke-width="4.40849"/>
<line x1="2.20425" y1="-2.20425" x2="88.8832" y2="-2.20425" transform="matrix(0.22625 0.974069 -0.99063 0.136572 29.3352 39.481)" stroke="black" stroke-width="4.40849" stroke-linecap="round"/>
<line x1="2.20425" y1="-2.20425" x2="88.7486" y2="-2.20425" transform="matrix(0.221978 -0.975052 0.990994 0.133907 87.5243 128.206)" stroke="black" stroke-width="4.40849" stroke-linecap="round"/>
<line x1="68.3481" y1="126.936" x2="68.3481" y2="44.487" stroke="black" stroke-width="4.40849" stroke-linecap="round"/>
<ellipse cx="69.9463" cy="30.1414" rx="53.946" ry="12.1414" fill="#F6821F" stroke="black" stroke-width="4.40849"/>
<rect x="2.25" y="157.25" width="135.5" height="31.5" rx="10.75" fill="white" stroke="black" stroke-width="4.5"/>
<path d="M45 179V171H43V169H49V171H47V179H45ZM53 179V169H59V171H61V173H59V177H61V179H59V177H57V175H55V179H53ZM55 173H58.92V171H55V173ZM65 179V171H67V169H71V171H73V179H71V175H67V179H65ZM67 173H71V171.08H67V173ZM79 171V169H85V171H79ZM83 177V175H79V173H77V171H79V173H83V175H85V177H83ZM77 179V177H83V179H77ZM89 179V169H91V173H95V169H97V179H95V175H91V179H89Z" fill="black"/>
</svg>
